# xmcd
# 
# Track frame offsets:
#     150
#     19407
#     40535
#     59062
#     82345
#     101455
#     124622
#     139667
#     155585
#     174960
#     189415
# 
# Disc length: 2945
# 
# Revision: 3
# Processed by: cddbd v1.5.2PL0 Copyright (c) Steve Scherf et al.
# Submitted via: BonkEnc v1.0
# 
DISCID=900b7f0b
DTITLE=John Mayall and The Bluesbreakers - Spinning Coin
DYEAR=1995
DGENRE=Blues
TTITLE0=When The Devil Starts Crying
TTITLE1=Spinning Coin
TTITLE2=Ain't No Brakeman
TTITLE3=Double Life Feelings
TTITLE4=Run
TTITLE5=What Passes For Love
TTITLE6=Fan The Flames
TTITLE7=Voodoo Music
TTITLE8=Long Story Short
TTITLE9=No Big Hurry
TTITLE10=Remember This
EXTD=YEAR: 1995
EXTT0=
EXTT1=
EXTT2=
EXTT3=
EXTT4=
EXTT5=
EXTT6=
EXTT7=
EXTT8=
EXTT9=
EXTT10=
PLAYORDER=
